M48
METRIC,LZ,000.000
;FILE_FORMAT=3:3
;TYPE=PLATED
;Layer: PTH_Through
;EasyEDA v6.5.40, 2024-02-19 09:39:11
;10
;Gerber Generator version 0.2
;Holesize 1 = 0.701 mm
T01C0.701
;Holesize 2 = 0.800 mm
T02C0.800
;Holesize 3 = 0.814 mm
T03C0.814
;Holesize 4 = 0.900 mm
T04C0.900
;Holesize 5 = 0.901 mm
T05C0.901
;Holesize 6 = 0.915 mm
T06C0.915
;Holesize 7 = 0.966 mm
T07C0.966
;Holesize 8 = 1.000 mm
T08C1.000
;Holesize 9 = 1.301 mm
T09C1.301
;Holesize 10 = 1.600 mm
T10C1.600
%
G05
G90
T01
X069977Y110998
X069977Y109728
X069977Y108458
X064770Y123063
X064770Y121793
X064770Y120523
X022098Y112014
X022098Y110744
X022098Y109474
T02
X010033Y137413
X010033Y121413
X037275Y127889
X045275Y127889
T03
X010033Y140208
T04
X040132Y110998
X047752Y110998
X062992Y115951
X062992Y108331
X022479Y133096
X022479Y125476
X026797Y119126
X019177Y119126
X048260Y127889
X048260Y140589
T05
X020153Y103632
X015153Y103632
T06
X010160Y109347
X015240Y109347
X010033Y119126
X015113Y119126
X035052Y119380
X029972Y119380
X056388Y112649
X056388Y117729
X035433Y115316
X035433Y105156
T07
X055372Y130048
X055372Y127508
T08
X062484Y127028
X062484Y130528
X048387Y117376
X048387Y120876
X068278Y140422
X068278Y137922
X068278Y135422
X062278Y140422
X062278Y137922
X062278Y135422
X041021Y116840
X041021Y119380
X041021Y121920
X059944Y119507
X060071Y112649
X071247Y126111
X071247Y122555
T09
X032726Y129199
X027726Y129199
X030226Y134199
T10
X017780Y137033
X020320Y134493
X020320Y139573
X015240Y139573
X015240Y134493
M30
