G04 Layer: BottomLayer*
G04 EasyEDA v6.5.40, 2024-02-19 09:39:11*
G04 Gerber Generator version 0.2*
G04 Scale: 100 percent, Rotated: No, Reflected: No *
G04 Dimensions in millimeters *
G04 leading zeros omitted , absolute positions ,4 integer and 5 decimal *
%FSLAX45Y45*%
%MOMM*%

%ADD10C,0.6000*%
%ADD11C,1.8000*%
%ADD12C,1.6000*%
%ADD13C,1.3000*%
%ADD14C,1.5240*%
%ADD15R,1.5240X1.5240*%
%ADD16C,1.6510*%
%ADD17O,1.7999964X1.7999964*%
%ADD18R,1.8000X1.8000*%
%ADD19O,1.5999968X0.8999982*%
%ADD20R,1.6000X0.9000*%
%ADD21C,1.8796*%
%ADD22C,2.5000*%
%ADD23R,2.5000X2.5000*%
%ADD24C,2.0400*%

%LPD*%
D10*
X1003300Y11912600D02*
G01*
X1016000Y11899900D01*
X1016000Y10934700D01*
X1524000Y10934700D02*
G01*
X1536700Y10947400D01*
X2209800Y10947400D01*
X1917700Y11912600D02*
G01*
X1930400Y11899900D01*
X1930400Y11099800D01*
X1955800Y11074400D01*
X2209800Y11074400D01*
X1511300Y11912600D02*
G01*
X1917700Y11912600D01*
X2247900Y12547600D02*
G01*
X2679700Y12115800D01*
X2679700Y11912600D01*
X2679700Y11912600D02*
G01*
X2705100Y11938000D01*
X2997200Y11938000D01*
X3543300Y11531600D02*
G01*
X3505200Y11569700D01*
X3505200Y11938000D01*
X3505200Y11938000D02*
G01*
X4102100Y11938000D01*
X4406900Y13474700D02*
G01*
X4527499Y13354100D01*
X4527499Y12788900D01*
X3727500Y12788900D02*
G01*
X4102100Y12414300D01*
X4102100Y12192000D01*
X5638800Y11772900D02*
G01*
X5816600Y11595100D01*
X6299200Y11595100D01*
X4013200Y11099800D02*
G01*
X4102100Y11188700D01*
X4102100Y11684000D01*
X6477000Y12052300D02*
G01*
X6477000Y11772900D01*
X6299200Y11595100D01*
X6299200Y11595100D02*
G01*
X6705600Y11188700D01*
X6705600Y11036300D01*
X6769100Y10972800D01*
X6997700Y10972800D01*
X2247900Y13309600D02*
G01*
X2997200Y14058900D01*
X4826000Y14058900D01*
X2209800Y11201400D02*
G01*
X2286000Y11277600D01*
X2679700Y11277600D01*
X2679700Y11912600D01*
X4775200Y11099800D02*
G01*
X4940300Y11264900D01*
X5638800Y11264900D01*
X5638800Y11264900D02*
G01*
X6007100Y11264900D01*
X5994400Y11950700D02*
G01*
X6223000Y12179300D01*
X6477000Y12179300D01*
X7124684Y12255474D02*
G01*
X7107318Y12272840D01*
X6819900Y12272840D01*
X3543300Y10515600D02*
G01*
X4013200Y10515600D01*
X4356100Y10858500D01*
X4356100Y11254994D01*
X4838700Y11737594D01*
X5638800Y11772900D02*
G01*
X5441180Y11772900D01*
X5405874Y11737594D01*
X4838700Y11737594D01*
X6997700Y11099800D02*
G01*
X6819900Y11099800D01*
X6819900Y13042900D01*
X6616700Y13042900D01*
X6276591Y12702796D01*
X6248400Y12702796D01*
X5537200Y13004800D02*
G01*
X5537200Y13052805D01*
X6248400Y13052805D01*
X5537200Y12750800D02*
G01*
X6200393Y12750800D01*
X6248400Y12702794D01*
X1003300Y11912600D02*
G01*
X1003300Y12141301D01*
X1003300Y13741298D02*
G01*
X1041272Y13703325D01*
X1777974Y13703325D01*
X1003300Y14020800D02*
G01*
X1003300Y13741298D01*
X1016000Y10960100D02*
G01*
X1016000Y10363200D01*
X1515300Y10363200D02*
G01*
X1515300Y10363200D01*
X1016000Y10363200D01*
X2209800Y10947400D02*
G01*
X2286000Y10871200D01*
X2286000Y10363200D01*
X2015294Y10363200D02*
G01*
X2066094Y10312400D01*
X6299200Y10312400D01*
X6299200Y10833100D01*
X4838710Y12087595D02*
G01*
X4635500Y12192000D01*
X4102100Y12192000D01*
X4527499Y12788900D02*
G01*
X4826000Y12788900D01*
X5308600Y12306300D01*
X6477000Y12306300D01*
X4826000Y14058900D02*
G01*
X4902200Y14058900D01*
X5461000Y13322300D01*
X5537200Y13004800D01*
X6227800Y14042199D02*
G01*
X6211100Y14058900D01*
X4826000Y14058900D01*
X6827799Y13542200D02*
G01*
X7124684Y13245315D01*
X7124684Y12611074D01*
X6997700Y10845800D02*
G01*
X6997700Y10312400D01*
X6299200Y10312400D01*
X6299200Y10833100D01*
X4406900Y13474700D02*
G01*
X3517900Y13474700D01*
X3272594Y12919875D01*
X3505200Y11938000D02*
G01*
X2768600Y12649200D01*
X2772595Y12919875D01*
D11*
G01*
X3272586Y12919862D03*
G01*
X2772587Y12919862D03*
G01*
X3022600Y13419886D03*
D12*
G01*
X6248400Y12702794D03*
G01*
X6248400Y13052805D03*
G01*
X4838700Y11737594D03*
G01*
X4838700Y12087605D03*
D13*
G01*
X1003300Y13741298D03*
G01*
X1003300Y12141301D03*
D12*
G01*
X2015286Y10363200D03*
G01*
X1515313Y10363200D03*
D14*
G01*
X6827799Y14042186D03*
G01*
X6827799Y13792200D03*
D15*
G01*
X6827799Y13542187D03*
D14*
G01*
X6227800Y14042186D03*
G01*
X6227800Y13792200D03*
G01*
X6227800Y13542187D03*
G01*
X1016000Y10934700D03*
G01*
X1524000Y10934700D03*
G01*
X1003300Y11912600D03*
G01*
X1511300Y11912600D03*
G01*
X3505200Y11938000D03*
G01*
X2997200Y11938000D03*
G01*
X5638800Y11264900D03*
G01*
X5638800Y11772900D03*
G01*
X3543300Y11531600D03*
G01*
X3543300Y10515600D03*
D16*
G01*
X5537200Y13004800D03*
G01*
X5537200Y12750800D03*
D17*
G01*
X4102100Y11684000D03*
G01*
X4102100Y11938000D03*
D18*
G01*
X4102100Y12192000D03*
D19*
G01*
X6997700Y11099800D03*
G01*
X6997700Y10972800D03*
D20*
G01*
X6997700Y10845800D03*
D19*
G01*
X6477000Y12306300D03*
G01*
X6477000Y12179300D03*
D20*
G01*
X6477000Y12052300D03*
D19*
G01*
X2209800Y11201400D03*
G01*
X2209800Y11074400D03*
D20*
G01*
X2209800Y10947400D03*
D21*
G01*
X4013200Y11099800D03*
G01*
X4775200Y11099800D03*
G01*
X6299200Y11595100D03*
G01*
X6299200Y10833100D03*
G01*
X2247900Y13309600D03*
G01*
X2247900Y12547600D03*
G01*
X2679700Y11912600D03*
G01*
X1917700Y11912600D03*
G01*
X4826000Y12788900D03*
G01*
X4826000Y14058900D03*
D12*
G01*
X3727500Y12788900D03*
G01*
X4527499Y12788900D03*
D22*
G01*
X1777974Y13703325D03*
G01*
X2032000Y13449300D03*
G01*
X2032000Y13957300D03*
G01*
X1524000Y13957300D03*
G01*
X1524000Y13449300D03*
G01*
X5994400Y11950700D03*
G01*
X6007100Y11264900D03*
G01*
X7124674Y12611074D03*
D23*
G01*
X7124674Y12255474D03*
D24*
G01*
X1003300Y14020800D03*
M02*
