G04 Layer: BottomSilkscreenLayer*
G04 EasyEDA v6.5.40, 2024-02-19 09:39:11*
G04 Gerber Generator version 0.2*
G04 Scale: 100 percent, Rotated: No, Reflected: No *
G04 Dimensions in millimeters *
G04 leading zeros omitted , absolute positions ,4 integer and 5 decimal *
%FSLAX45Y45*%
%MOMM*%

%ADD10C,0.1524*%
%ADD11C,0.2540*%

%LPD*%
D10*
X3489452Y13161137D02*
G01*
X3380486Y13161137D01*
X3489452Y13161137D02*
G01*
X3489452Y13207872D01*
X3484372Y13223620D01*
X3479038Y13228701D01*
X3468877Y13234035D01*
X3453129Y13234035D01*
X3442715Y13228701D01*
X3437636Y13223620D01*
X3432302Y13207872D01*
X3432302Y13161137D01*
X3489452Y13268325D02*
G01*
X3380486Y13268325D01*
X3489452Y13268325D02*
G01*
X3489452Y13315061D01*
X3484372Y13330554D01*
X3479038Y13335888D01*
X3468877Y13340969D01*
X3458463Y13340969D01*
X3448050Y13335888D01*
X3442715Y13330554D01*
X3437636Y13315061D01*
X3437636Y13268325D01*
X3437636Y13304646D02*
G01*
X3380486Y13340969D01*
X3468877Y13375259D02*
G01*
X3473958Y13385672D01*
X3489452Y13401167D01*
X3380486Y13401167D01*
D11*
X3071799Y13167700D02*
G01*
X3122599Y13167700D01*
X3020999Y13066100D02*
G01*
X3020999Y13116900D01*
X2907405Y13167700D02*
G01*
X2985079Y13167700D01*
X3020999Y13218500D02*
G01*
X3020999Y13269300D01*
X3362599Y13509901D02*
G01*
X2692598Y13509901D01*
X2692600Y12869900D01*
X3362599Y12869900D01*
X3362599Y13509901D01*
G75*
G01*
X3020885Y13203618D02*
G02*
X3020378Y13203618I-253J-35920D01*
G75*
G01*
X3020885Y13281342D02*
G02*
X3019108Y13281342I-888J-113588D01*
M02*
