G04 Layer: TopSolderMaskLayer*
G04 EasyEDA v6.5.40, 2024-02-19 09:39:11*
G04 Gerber Generator version 0.2*
G04 Scale: 100 percent, Rotated: No, Reflected: No *
G04 Dimensions in millimeters *
G04 leading zeros omitted , absolute positions ,4 integer and 5 decimal *
%FSLAX45Y45*%
%MOMM*%

%AMMACRO1*1,1,$1,$2,$3*1,1,$1,$4,$5*1,1,$1,0-$2,0-$3*1,1,$1,0-$4,0-$5*20,1,$1,$2,$3,$4,$5,0*20,1,$1,$4,$5,0-$2,0-$3,0*20,1,$1,0-$2,0-$3,0-$4,0-$5,0*20,1,$1,0-$4,0-$5,$2,$3,0*4,1,4,$2,$3,$4,$5,0-$2,0-$3,0-$4,0-$5,$2,$3,0*%
%ADD10C,1.9020*%
%ADD11C,1.9016*%
%ADD12C,1.8032*%
%ADD13C,1.4000*%
%ADD14C,1.7016*%
%ADD15C,1.6256*%
%ADD16R,1.6256X1.6256*%
%ADD17C,1.7526*%
%ADD18O,1.9015964X1.9015964*%
%ADD19MACRO1,0.1016X0.9X-0.9X-0.9X-0.9*%
%ADD20O,1.7015968X1.0015981999999999*%
%ADD21R,1.7016X1.0016*%
%ADD22C,1.9812*%
%ADD23C,2.6016*%
%ADD24C,2.6020*%
%ADD25R,2.6020X2.6020*%
%ADD26C,2.1420*%

%LPD*%
D10*
G01*
X3272586Y12919862D03*
G01*
X2772587Y12919862D03*
D11*
G01*
X3022600Y13419886D03*
D12*
G01*
X6248400Y12702794D03*
G01*
X6248400Y13052805D03*
G01*
X4838700Y11737594D03*
G01*
X4838700Y12087605D03*
D13*
G01*
X1003300Y13741298D03*
G01*
X1003300Y12141301D03*
D14*
G01*
X2015286Y10363200D03*
G01*
X1515313Y10363200D03*
D15*
G01*
X6827799Y14042186D03*
G01*
X6827799Y13792200D03*
D16*
G01*
X6827799Y13542187D03*
D15*
G01*
X6227800Y14042186D03*
G01*
X6227800Y13792200D03*
G01*
X6227800Y13542187D03*
G01*
X1016000Y10934700D03*
G01*
X1524000Y10934700D03*
G01*
X1003300Y11912600D03*
G01*
X1511300Y11912600D03*
G01*
X3505200Y11938000D03*
G01*
X2997200Y11938000D03*
G01*
X5638800Y11264900D03*
G01*
X5638800Y11772900D03*
G01*
X3543300Y11531600D03*
G01*
X3543300Y10515600D03*
D17*
G01*
X5537200Y13004800D03*
G01*
X5537200Y12750800D03*
D18*
G01*
X4102100Y11684000D03*
G01*
X4102100Y11938000D03*
D19*
G01*
X4102100Y12192000D03*
D20*
G01*
X6997700Y11099800D03*
G01*
X6997700Y10972800D03*
D21*
G01*
X6997700Y10845800D03*
D20*
G01*
X6477000Y12306300D03*
G01*
X6477000Y12179300D03*
D21*
G01*
X6477000Y12052300D03*
D20*
G01*
X2209800Y11201400D03*
G01*
X2209800Y11074400D03*
D21*
G01*
X2209800Y10947400D03*
D22*
G01*
X4013200Y11099800D03*
G01*
X4775200Y11099800D03*
G01*
X6299200Y11595100D03*
G01*
X6299200Y10833100D03*
G01*
X2247900Y13309600D03*
G01*
X2247900Y12547600D03*
G01*
X2679700Y11912600D03*
G01*
X1917700Y11912600D03*
G01*
X4826000Y12788900D03*
G01*
X4826000Y14058900D03*
D14*
G01*
X3727500Y12788900D03*
G01*
X4527499Y12788900D03*
D23*
G01*
X1777974Y13703325D03*
G01*
X2032000Y13449300D03*
G01*
X2032000Y13957300D03*
G01*
X1524000Y13957300D03*
G01*
X1524000Y13449300D03*
D24*
G01*
X5994400Y11950700D03*
G01*
X6007100Y11264900D03*
G01*
X7124674Y12611074D03*
D25*
G01*
X7124674Y12255474D03*
D26*
G01*
X1003300Y14020800D03*
M02*
